
<svg xmlns="http://www.w3.org/2000/svg">
    <symbol id="fb" viewBox="0 0 20 19">
    <path fill-rule="evenodd" clip-rule="evenodd" d="M19.2828 9.28432C19.2828 4.15722 14.9657 0 9.64141 0C4.31711 0 0 4.15722 0 9.28432C0 13.9182 3.52514 17.7592 8.13494 18.4563V11.9689H5.68628V9.28432H8.13494V7.23887C8.13494 4.9124 9.5747 3.62627 11.7767 3.62627C12.8317 3.62627 13.9353 3.80782 13.9353 3.80782V6.09284H12.7189C11.5219 6.09284 11.1475 6.80823 11.1475 7.54351V9.28432H13.8212L13.3942 11.9689H11.1479V18.4572C15.7577 17.7604 19.2828 13.9194 19.2828 9.28432Z"/>
    </symbol>
    
    <symbol id="inst" viewBox="0 0 20 19">
    <path d="M13.6585 1.54725C14.7231 1.55031 15.7431 1.95889 16.4958 2.68376C17.2486 3.40863 17.6729 4.39088 17.6761 5.41599V13.1527C17.6729 14.1778 17.2486 15.16 16.4958 15.8849C15.7431 16.6098 14.7231 17.0183 13.6585 17.0214H5.6243C4.55976 17.0183 3.53973 16.6098 2.78698 15.8849C2.03423 15.16 1.60994 14.1778 1.60676 13.1527V5.41599C1.60994 4.39088 2.03423 3.40863 2.78698 2.68376C3.53973 1.95889 4.55976 1.55031 5.6243 1.54725H13.6585ZM13.6585 0H5.6243C2.53087 0 0 2.43713 0 5.41599V13.1527C0 16.1315 2.53087 18.5686 5.6243 18.5686H13.6585C16.752 18.5686 19.2828 16.1315 19.2828 13.1527V5.41599C19.2828 2.43713 16.752 0 13.6585 0Z" />
    <path d="M14.8633 5.41679C14.6249 5.41679 14.3919 5.34872 14.1937 5.2212C13.9956 5.09368 13.8411 4.91243 13.7499 4.70037C13.6587 4.4883 13.6348 4.25496 13.6813 4.02984C13.7278 3.80471 13.8426 3.59792 14.0111 3.43562C14.1797 3.27332 14.3944 3.16278 14.6282 3.118C14.862 3.07323 15.1043 3.09621 15.3245 3.18405C15.5447 3.27188 15.7329 3.42063 15.8654 3.61148C15.9978 3.80233 16.0685 4.02671 16.0685 4.25625C16.0688 4.40874 16.0379 4.5598 15.9774 4.70075C15.917 4.8417 15.8282 4.96977 15.7163 5.0776C15.6043 5.18543 15.4713 5.27091 15.3249 5.32911C15.1785 5.38732 15.0217 5.41711 14.8633 5.41679ZM9.64102 6.1902C10.2767 6.1902 10.8981 6.37172 11.4266 6.71179C11.9551 7.05186 12.3671 7.53522 12.6103 8.10075C12.8536 8.66627 12.9172 9.28855 12.7932 9.8889C12.6692 10.4893 12.3631 11.0407 11.9136 11.4736C11.4641 11.9064 10.8915 12.2012 10.268 12.3206C9.64458 12.44 8.99837 12.3787 8.4111 12.1445C7.82382 11.9102 7.32187 11.5135 6.96872 11.0046C6.61557 10.4956 6.42707 9.89723 6.42707 9.28512C6.42798 8.46456 6.76689 7.67787 7.36942 7.09765C7.97196 6.51743 8.78891 6.19108 9.64102 6.1902ZM9.64102 4.64295C8.68757 4.64295 7.75554 4.91521 6.96278 5.4253C6.17002 5.93539 5.55214 6.66039 5.18727 7.50864C4.8224 8.35688 4.72694 9.29027 4.91294 10.1908C5.09895 11.0913 5.55808 11.9184 6.23227 12.5676C6.90645 13.2168 7.76542 13.659 8.70055 13.8381C9.63567 14.0172 10.605 13.9253 11.4858 13.5739C12.3667 13.2226 13.1196 12.6276 13.6493 11.8642C14.179 11.1008 14.4617 10.2033 14.4617 9.28512C14.4617 8.05394 13.9538 6.87319 13.0498 6.00261C12.1457 5.13204 10.9196 4.64295 9.64102 4.64295Z" />
    
    </symbol>
    <symbol id="twitter" viewBox="0 0 21 17">
    <g clip-path="url(#clip0_1_474)">
    <path d="M20.6602 1.95842C19.8852 2.29516 19.0652 2.51701 18.2261 2.61696C19.1079 2.10062 19.7711 1.28032 20.0912 0.30991C19.2575 0.7974 18.3469 1.13945 17.3984 1.3214C16.9991 0.902826 16.5187 0.569842 15.9866 0.342684C15.4546 0.115526 14.8818 -0.00106199 14.3033 7.28894e-06C11.9609 7.28894e-06 10.0654 1.86803 10.0654 4.17078C10.0637 4.49108 10.1004 4.81043 10.1747 5.12201C8.49507 5.04327 6.85036 4.61479 5.34581 3.864C3.84126 3.1132 2.50999 2.05662 1.43717 0.761851C1.0608 1.39634 0.861758 2.12028 0.86084 2.858C0.86084 4.30421 1.61537 5.58256 2.75469 6.33149C2.07967 6.31547 1.41849 6.13681 0.827268 5.81068V5.86233C0.827268 7.8853 2.2907 9.56825 4.22759 9.95132C3.86336 10.0484 3.48803 10.0976 3.11108 10.0977C2.84361 10.0981 2.57674 10.0722 2.31437 10.0202C2.85283 11.6773 4.41999 12.8825 6.27639 12.9169C4.76793 14.0794 2.91593 14.7078 1.01149 14.7032C0.673443 14.7027 0.335713 14.6825 0 14.6429C1.9374 15.88 4.18947 16.5344 6.48815 16.5281C14.2943 16.5281 18.5589 10.1708 18.5589 4.65715C18.5589 4.47638 18.5541 4.2956 18.5455 4.11913C19.3733 3.53034 20.0893 2.79865 20.6602 1.95842Z" />
    </g>
    <defs>
    <clipPath id="clip0_1_474">
    <rect width="21" height="17" fill="white"/>
    </clipPath>
    </defs>
    </symbol>
    
    <symbol viewBox="0 0 20 20" id="in">
    <path d="M17.0392 17.0433H14.0775V12.4025C14.0775 11.2958 14.055 9.87167 12.5342 9.87167C10.99 9.87167 10.7542 11.0758 10.7542 12.3208V17.0433H7.7925V7.5H10.6375V8.80083H10.6758C11.0733 8.05083 12.04 7.25917 13.4842 7.25917C16.485 7.25917 17.04 9.23417 17.04 11.805V17.0433H17.0392ZM4.4475 6.19417C3.49417 6.19417 2.72833 5.4225 2.72833 4.47333C2.72833 3.525 3.495 2.75417 4.4475 2.75417C5.3975 2.75417 6.1675 3.525 6.1675 4.47333C6.1675 5.4225 5.39667 6.19417 4.4475 6.19417ZM5.9325 17.0433H2.9625V7.5H5.9325V17.0433ZM18.5208 0H1.47583C0.66 0 0 0.645 0 1.44083V18.5592C0 19.3558 0.66 20 1.47583 20H18.5183C19.3333 20 20 19.3558 20 18.5592V1.44083C20 0.645 19.3333 0 18.5183 0H18.5208Z"/>
    </symbol>
</svg>